<?xml version="1.0" standalone="no"?>
<!DOCTYPE svg PUBLIC "-//W3C//DTD SVG 20010904//EN"
 "http://www.w3.org/TR/2001/REC-SVG-20010904/DTD/svg10.dtd">
<svg version="1.0" xmlns="http://www.w3.org/2000/svg"
 width="1024.000000pt" height="1024.000000pt" viewBox="0 0 1024.000000 1024.000000"
 preserveAspectRatio="xMidYMid meet">
<metadata>
Created by potrace 1.16, written by Peter Selinger 2001-2019
</metadata>
<g transform="translate(0.000000,1024.000000) scale(0.100000,-0.100000)"
fill="#000000" stroke="none">
<path d="M3470 7320 c-323 -7 -345 -10 -465 -73 -88 -47 -192 -155 -237 -247
-73 -150 -69 -52 -66 -1730 l3 -1505 27 -80 c52 -153 164 -282 303 -351 102
-50 164 -64 293 -64 l112 0 0 -208 c0 -208 0 -209 28 -263 65 -130 233 -176
346 -96 17 12 171 141 342 288 l311 266 504 6 c277 4 749 7 1049 7 446 0 555
3 600 15 206 55 374 218 437 425 20 63 22 460 13 2200 l-5 955 -22 59 c-72
190 -224 329 -405 371 -111 25 -2275 42 -3168 25z m3162 -303 c33 -16 76 -49
103 -79 85 -94 79 34 72 -1654 -8 -1699 1 -1547 -97 -1646 -47 -46 -68 -60
-124 -77 -67 -21 -81 -21 -1135 -21 -817 -1 -1071 -4 -1087 -13 -12 -7 -164
-138 -339 -292 -174 -154 -320 -281 -325 -283 -5 -2 -10 114 -12 262 l-3 266
-28 27 -27 28 -203 6 c-216 6 -247 13 -326 64 -46 31 -97 101 -111 155 -6 24
-11 597 -12 1556 l-3 1519 27 51 c33 63 95 117 162 143 50 20 84 20 1731 18
l1680 -2 57 -28z"/>
<path d="M4650 6724 c-176 -33 -392 -120 -535 -216 -154 -104 -318 -263 -413
-401 -109 -157 -203 -395 -238 -597 -25 -144 -15 -420 19 -555 69 -268 190
-480 391 -680 368 -367 885 -511 1381 -385 407 103 770 404 955 793 99 208
135 385 127 632 -13 400 -143 709 -412 981 -211 213 -416 335 -685 406 -106
28 -131 31 -310 34 -147 3 -216 -1 -280 -12z m288 -280 c67 -27 125 -97 187
-222 32 -66 86 -216 99 -278 l7 -32 -118 -7 c-114 -8 -531 0 -541 9 -10 11 71
240 118 333 54 107 97 165 144 194 38 23 56 24 104 3z m-503 -145 c-25 -57
-64 -158 -87 -224 -22 -66 -42 -121 -43 -123 -11 -12 -315 73 -315 89 0 16
170 180 235 225 65 46 246 146 253 139 2 -1 -18 -49 -43 -106z m984 57 c107
-54 221 -140 320 -239 l73 -75 -78 -30 c-66 -25 -209 -62 -242 -62 -5 0 -19
39 -32 88 -25 98 -75 233 -114 310 -15 29 -24 52 -21 52 3 0 45 -20 94 -44z
m-1483 -575 c76 -31 260 -81 301 -81 l23 0 -7 -97 c-11 -131 -8 -551 4 -636 7
-49 6 -70 -1 -72 -6 -2 -51 -10 -101 -19 -49 -10 -135 -33 -190 -52 -55 -19
-107 -38 -116 -40 -13 -4 -23 9 -44 53 -93 203 -120 499 -65 721 23 97 98 265
114 258 6 -3 43 -18 82 -35z m2054 -43 c58 -151 81 -260 87 -413 4 -106 1
-161 -11 -228 -17 -87 -64 -234 -95 -294 l-16 -32 -115 45 c-63 25 -157 57
-209 72 l-93 26 6 61 c14 140 18 436 7 569 -6 76 -10 140 -8 143 3 2 52 15
110 28 57 13 147 41 198 63 52 22 97 41 101 41 3 1 21 -36 38 -81z m-1038 -93
l337 0 8 -95 c14 -165 1 -576 -20 -596 -2 -2 -70 1 -153 7 -82 6 -251 9 -376
6 -125 -3 -230 -2 -232 1 -2 4 -9 75 -16 159 -8 113 -9 195 -1 319 15 224 12
215 70 206 25 -4 198 -7 383 -7z m273 -957 c12 -12 -61 -234 -109 -333 -115
-236 -205 -279 -326 -156 -67 69 -128 186 -189 365 -23 65 -41 120 -41 122 0
12 653 14 665 2z m-900 -100 c26 -103 76 -241 119 -326 20 -40 33 -72 29 -72
-26 1 -221 107 -289 157 -77 58 -211 199 -200 210 4 5 294 98 317 102 3 1 13
-32 24 -71z m1310 32 c88 -23 168 -54 173 -68 6 -19 -171 -186 -258 -244 -84
-55 -165 -99 -207 -112 -20 -6 -19 -1 17 81 38 89 120 334 120 359 0 17 43 12
155 -16z"/>
</g>
</svg>
